<svg width="96" height="21" viewBox="0 0 96 21" fill="none" xmlns="http://www.w3.org/2000/svg">
<path d="M6.00781 18.0234H0L1.68262 12.0156H7.68945L6.00781 18.0234ZM25.3525 18.0234H11.415L13.0967 12.0156H7.68945L9.37207 6.00781H3.96582L5.64746 0H19.585L17.9033 6.00781H23.3096L21.6279 12.0156H27.0352L25.3525 18.0234ZM29.3174 6.00781H23.3105L24.9922 0H31L29.3174 6.00781Z" fill="url(#paint0_linear_2422_761)"/>
<path d="M87.909 5.09094L89.9119 8.90486L91.9644 5.09094H95.0681L91.9076 10.5455L95.1534 16H92.0639L89.9119 12.2287L87.7954 16H84.6704L87.909 10.5455L84.784 5.09094H87.909Z" fill="white"/>
<path d="M78.0393 20.3182C77.0592 20.3182 76.2188 20.1832 75.518 19.9133C74.822 19.6482 74.268 19.286 73.8561 18.8267C73.4442 18.3674 73.1766 17.8513 73.0535 17.2784L75.8518 16.902C75.9371 17.1198 76.072 17.3234 76.2567 17.5128C76.4413 17.7022 76.6852 17.8537 76.9882 17.9673C77.296 18.0857 77.67 18.1449 78.1104 18.1449C78.7685 18.1449 79.3106 17.9839 79.7368 17.6619C80.1676 17.3447 80.3831 16.812 80.3831 16.0639V14.0682H80.2552C80.1227 14.3712 79.9238 14.6577 79.6586 14.9275C79.3935 15.1974 79.0526 15.4176 78.6359 15.5881C78.2193 15.7585 77.7221 15.8437 77.1444 15.8437C76.3253 15.8437 75.5796 15.6543 74.9072 15.2756C74.2396 14.892 73.7069 14.3073 73.3092 13.5213C72.9162 12.7306 72.7197 11.7315 72.7197 10.5241C72.7197 9.28834 72.921 8.25614 73.3234 7.42754C73.7259 6.59895 74.2609 5.97868 74.9285 5.56675C75.6009 5.15482 76.3372 4.94885 77.1373 4.94885C77.7481 4.94885 78.2595 5.05302 78.6714 5.26135C79.0834 5.46495 79.4148 5.72063 79.6658 6.0284C79.9214 6.33143 80.1179 6.62972 80.2552 6.92328H80.3689V5.0909H83.3731V16.1065C83.3731 17.0346 83.1459 17.8111 82.6913 18.4361C82.2368 19.0611 81.607 19.5298 80.8021 19.8423C80.0019 20.1596 79.081 20.3182 78.0393 20.3182ZM78.1033 13.571C78.5909 13.571 79.0029 13.4503 79.339 13.2088C79.68 12.9626 79.9404 12.6122 80.1203 12.1577C80.305 11.6984 80.3973 11.1491 80.3973 10.5099C80.3973 9.87073 80.3073 9.31675 80.1274 8.848C79.9475 8.37451 79.6871 8.00756 79.3461 7.74715C79.0052 7.48673 78.5909 7.35652 78.1033 7.35652C77.6061 7.35652 77.1871 7.49147 76.8461 7.76135C76.5052 8.0265 76.2472 8.39582 76.072 8.86931C75.8968 9.34279 75.8092 9.88967 75.8092 10.5099C75.8092 11.1397 75.8968 11.6842 76.072 12.1435C76.2519 12.598 76.51 12.9507 76.8461 13.2017C77.1871 13.4479 77.6061 13.571 78.1033 13.571Z" fill="white"/>
<path d="M55.2822 16V5.0909H58.1658V7.01561H58.2936C58.5209 6.37641 58.8997 5.87215 59.43 5.50283C59.9603 5.13351 60.5947 4.94885 61.3334 4.94885C62.0815 4.94885 62.7183 5.13588 63.2439 5.50993C63.7694 5.87925 64.1198 6.38114 64.295 7.01561H64.4086C64.6312 6.39061 65.0336 5.89109 65.616 5.51703C66.2032 5.13825 66.8968 4.94885 67.697 4.94885C68.715 4.94885 69.5412 5.27319 70.1757 5.92186C70.8149 6.5658 71.1345 7.47963 71.1345 8.66334V16H68.116V9.25993C68.116 8.65387 67.955 8.19933 67.6331 7.8963C67.3111 7.59327 66.9086 7.44175 66.4257 7.44175C65.8765 7.44175 65.4479 7.61694 65.1402 7.96732C64.8324 8.31296 64.6785 8.76987 64.6785 9.33806V16H61.7453V9.19601C61.7453 8.66097 61.5914 8.23484 61.2836 7.9176C60.9806 7.60037 60.5805 7.44175 60.0834 7.44175C59.7472 7.44175 59.4442 7.52698 59.1743 7.69743C58.9091 7.86315 58.6984 8.09753 58.5422 8.40056C58.3859 8.69885 58.3078 9.04923 58.3078 9.45169V16H55.2822Z" fill="white"/>
<path d="M50.2333 16V5.09087H53.2588V16H50.2333ZM51.7532 3.68462C51.3033 3.68462 50.9175 3.53547 50.5955 3.23717C50.2782 2.93414 50.1196 2.57193 50.1196 2.15052C50.1196 1.73386 50.2782 1.37638 50.5955 1.07808C50.9175 0.775051 51.3033 0.623535 51.7532 0.623535C52.203 0.623535 52.5865 0.775051 52.9037 1.07808C53.2257 1.37638 53.3867 1.73386 53.3867 2.15052C53.3867 2.57193 53.2257 2.93414 52.9037 3.23717C52.5865 3.53547 52.203 3.68462 51.7532 3.68462Z" fill="white"/>
<path d="M39.1504 16V14.1961L44.4913 7.58384V7.50571H39.335V5.09094H48.1348V7.05827L43.1206 13.5071V13.5853H48.3194V16H39.1504Z" fill="white"/>
<defs>
<linearGradient id="paint0_linear_2422_761" x1="15.5" y1="0" x2="15.5" y2="18.0234" gradientUnits="userSpaceOnUse">
<stop stop-color="#FFB324"/>
<stop offset="1" stop-color="#FF5EAB"/>
</linearGradient>
</defs>
</svg>
